<?xml version="1.0" encoding="UTF-8" standalone="no"?>
<!DOCTYPE svg PUBLIC "-//W3C//DTD SVG 1.1//EN" "http://www.w3.org/Graphics/SVG/1.1/DTD/svg11.dtd">
<svg xmlns="http://www.w3.org/2000/svg" version="1.1" viewBox="0.00 0.00 909.00 925.00">
<g stroke-width="2.00" fill="none" stroke-linecap="butt">
<path stroke="#7a7a7b" vector-effect="non-scaling-stroke" d="
  M 378.37 175.78
  A 0.31 0.31 0.0 0 1 377.91 175.92
  C 368.79 169.85 358.66 164.51 348.13 161.08
  Q 346.60 160.59 341.73 158.86
  C 331.03 155.07 318.17 154.87 304.54 155.76
  Q 292.14 156.57 277.04 162.55
  C 256.51 170.67 240.17 185.37 229.05 203.26
  C 209.52 234.73 212.42 272.00 225.76 305.51
  A 0.98 0.98 0.0 0 1 224.77 306.85
  Q 213.29 305.88 202.26 305.80
  C 175.92 305.61 149.60 312.48 127.41 326.93
  C 101.81 343.61 81.40 368.89 72.27 398.16
  Q 67.20 414.41 66.10 428.79
  Q 63.49 462.87 76.69 493.02
  C 90.33 524.17 115.05 547.89 146.28 561.18
  C 156.73 565.63 170.37 568.48 181.73 571.27
  Q 188.35 572.90 193.98 575.52
  A 0.77 0.77 0.0 0 1 194.27 576.68
  Q 189.00 583.58 186.03 587.77
  C 163.24 619.92 153.46 658.20 159.81 697.05
  Q 164.44 725.40 179.51 750.60
  A 1.22 1.21 -27.0 0 1 178.94 752.34
  Q 170.62 755.89 161.02 761.61
  Q 155.77 764.74 151.84 768.40
  Q 145.09 774.69 143.64 776.43
  Q 135.34 786.33 137.99 798.49
  Q 139.46 805.21 145.52 811.83
  Q 152.21 819.12 157.09 822.20
  Q 178.07 835.45 203.28 843.73
  Q 231.97 853.16 260.20 858.78
  Q 316.80 870.06 373.76 874.15
  Q 395.66 875.73 414.25 876.75
  Q 422.19 877.19 427.50 877.24
  Q 464.89 877.58 499.74 877.38
  C 520.78 877.25 536.48 875.78 561.71 874.08
  Q 575.73 873.14 589.75 871.61
  Q 613.58 869.01 617.74 868.44
  Q 649.86 864.05 681.68 857.15
  C 706.07 851.86 729.49 844.99 753.22 835.00
  Q 769.82 828.01 782.84 817.62
  C 793.09 809.43 799.78 798.53 795.68 785.25
  C 794.01 779.85 789.14 773.76 784.87 770.15
  C 776.62 763.17 769.33 759.06 758.60 753.56
  C 744.97 746.57 729.49 741.22 715.15 737.10
  A 0.46 0.45 -77.7 0 1 714.83 736.59
  C 717.79 718.84 716.68 700.24 712.39 683.34
  Q 710.06 674.15 705.46 660.31
  Q 704.41 657.17 704.84 655.77
  C 705.99 652.01 706.51 647.82 707.88 644.07
  C 714.89 624.88 729.61 611.06 747.94 602.46
  C 764.44 594.73 784.38 586.79 800.26 576.88
  C 831.53 557.37 856.18 528.32 865.44 492.74
  Q 871.48 469.54 867.27 445.53
  Q 865.47 435.28 861.92 426.58
  C 855.32 410.37 846.41 397.84 831.97 388.13
  Q 809.95 373.34 783.43 372.78
  A 0.79 0.78 2.5 0 1 782.66 371.95
  Q 782.69 371.47 783.05 370.82
  C 798.73 342.41 805.15 308.17 793.37 277.02
  C 783.61 251.19 765.06 232.92 739.86 221.91
  Q 725.42 215.60 709.75 214.57
  Q 674.90 212.28 646.09 231.14
  Q 625.09 244.89 621.45 246.97
  Q 620.67 247.42 619.25 247.99
  A 0.69 0.68 -16.6 0 1 618.32 247.49
  Q 616.57 238.29 615.14 231.30
  Q 611.13 211.73 602.14 191.85
  C 593.67 173.12 581.15 157.61 565.72 144.02
  Q 555.64 135.13 541.84 127.97
  C 533.09 123.43 523.81 120.67 514.95 118.29
  C 491.59 112.02 466.49 113.92 443.56 121.63
  C 417.91 130.24 395.90 148.67 381.00 171.00
  Q 379.41 173.38 378.37 175.78"
/>
<path stroke="#7a7a7b" vector-effect="non-scaling-stroke" d="
  M 689.65 627.30
  C 699.28 611.05 712.37 595.48 729.46 586.97
  Q 738.89 582.27 752.91 576.10
  Q 766.95 569.92 781.98 561.63
  Q 795.99 553.90 804.51 546.41
  C 826.29 527.26 841.77 504.86 845.81 475.70
  C 851.36 435.73 827.30 398.31 785.24 395.02
  C 774.03 394.14 760.93 398.31 751.56 404.14
  C 742.95 409.51 735.70 418.26 730.08 427.34
  Q 728.56 429.79 724.82 437.80
  Q 723.08 441.54 720.94 443.62
  C 715.26 449.14 705.53 446.20 703.23 439.01
  C 702.03 435.28 703.97 431.38 705.68 427.44
  C 709.83 417.88 714.97 409.19 722.46 401.13
  C 730.57 392.42 738.82 385.00 746.36 378.01
  Q 755.28 369.74 759.95 363.32
  C 772.44 346.15 779.58 322.68 776.45 301.56
  Q 774.38 287.60 767.55 275.27
  Q 754.83 252.31 731.02 242.57
  Q 704.95 231.90 677.01 240.56
  C 669.74 242.81 662.18 246.93 655.62 251.13
  Q 640.99 260.48 628.51 267.49
  C 623.99 270.03 623.08 273.48 624.10 278.43
  C 626.08 288.13 630.09 297.09 635.73 305.45
  C 639.66 311.28 644.81 316.07 649.24 320.52
  Q 652.19 323.49 652.68 324.81
  Q 655.73 333.14 648.51 337.77
  C 641.29 342.40 634.50 335.76 629.26 330.75
  Q 612.53 314.76 605.11 292.67
  Q 599.57 276.15 596.95 259.32
  Q 596.93 259.21 593.88 240.05
  C 586.76 195.27 559.39 154.86 514.43 141.24
  Q 483.20 131.78 449.60 143.43
  C 429.18 150.51 410.88 165.92 399.78 184.27
  Q 391.00 198.79 387.02 212.23
  Q 380.50 234.24 377.77 243.04
  Q 373.55 256.62 368.95 265.94
  C 345.57 313.30 295.59 340.54 243.07 332.34
  Q 228.21 330.02 219.82 329.14
  C 202.11 327.29 183.33 327.81 166.41 333.28
  C 133.99 343.75 107.79 368.86 95.72 400.46
  Q 91.48 411.57 89.21 426.87
  Q 87.68 437.14 88.52 447.19
  C 90.34 468.64 97.43 489.14 110.66 506.10
  Q 117.76 515.19 123.49 520.25
  Q 142.43 536.96 166.30 544.69
  Q 172.57 546.72 188.67 550.63
  C 196.41 552.51 204.01 554.89 209.12 556.45
  A 2.89 2.88 -57.4 0 0 211.88 555.84
  Q 215.27 552.79 218.91 548.15
  Q 224.77 540.67 231.38 529.88
  Q 239.15 517.21 240.84 502.83
  Q 241.50 497.21 242.72 495.52
  C 246.48 490.28 253.60 489.01 258.37 493.20
  C 263.06 497.32 262.72 503.02 261.72 509.67
  Q 259.68 523.21 253.20 535.45
  Q 247.03 547.11 242.69 553.46
  Q 235.52 563.94 226.65 574.17
  Q 212.54 590.44 212.05 591.04
  Q 200.91 604.57 193.58 619.36
  C 177.35 652.10 176.39 692.22 192.25 725.53
  Q 204.16 750.54 224.01 769.41
  C 229.46 774.58 237.03 780.14 242.86 783.89
  Q 266.25 798.92 293.62 803.12
  C 321.39 807.38 348.70 802.64 373.05 789.75
  Q 382.52 784.73 393.52 776.44
  Q 402.91 769.35 411.26 759.74
  Q 422.88 746.37 433.94 728.94
  Q 438.05 722.46 441.03 714.96
  A 1.52 1.47 -44.2 0 0 441.06 713.94
  C 439.72 709.99 439.20 705.30 437.63 700.99
  C 432.44 686.81 424.75 675.70 411.99 668.66
  Q 406.06 665.39 405.03 663.70
  C 402.17 659.04 402.63 653.09 407.39 649.67
  Q 413.69 645.14 420.73 649.05
  Q 444.73 662.38 456.09 688.99
  Q 459.98 698.09 463.42 710.36
  C 468.32 727.80 472.62 743.66 479.92 759.07
  Q 492.53 785.67 515.30 804.72
  C 518.14 807.10 520.47 808.42 524.03 810.94
  C 533.13 817.38 544.82 822.48 554.28 824.95
  Q 586.38 833.32 618.46 822.37
  C 648.43 812.14 673.26 787.60 685.63 758.74
  Q 690.17 748.16 691.90 738.69
  Q 693.85 728.05 694.37 717.79
  Q 694.57 713.71 693.89 705.97
  C 693.11 697.12 691.56 688.46 688.46 680.53
  C 685.80 673.71 683.35 668.23 679.64 661.51
  Q 672.09 647.83 670.54 644.22
  C 658.02 615.09 650.70 584.26 659.47 552.99
  Q 661.63 545.29 664.64 539.39
  C 667.50 533.77 673.59 530.57 679.46 534.04
  Q 684.94 537.29 685.18 542.75
  Q 685.28 545.16 682.90 551.09
  Q 674.80 571.22 678.01 593.04
  Q 679.35 602.12 681.93 610.69
  Q 684.28 618.48 689.01 627.28
  A 0.37 0.36 46.4 0 0 689.65 627.30"
/>
<path stroke="#7a7a7b" vector-effect="non-scaling-stroke" d="
  M 368.07 198.31
  A 1.76 1.75 29.0 0 0 367.49 196.31
  C 358.13 189.12 347.42 183.08 335.71 180.31
  Q 307.95 173.75 282.95 184.19
  C 273.00 188.34 263.87 196.02 256.71 204.10
  C 240.41 222.50 234.18 247.61 239.14 271.63
  C 241.55 283.30 245.56 294.70 250.14 305.88
  Q 251.21 308.51 252.29 310.03
  A 2.92 2.88 -14.7 0 0 254.41 311.25
  C 273.07 312.97 292.57 307.72 308.97 298.91
  C 328.57 288.39 343.63 268.87 351.61 248.68
  Q 356.75 235.69 358.28 230.26
  C 362.45 215.51 365.02 206.51 368.07 198.31"
/>
<path stroke="#7a7a7b" vector-effect="non-scaling-stroke" d="
  M 383.5230 407.1245
  A 29.95 29.83 -102.0 0 0 360.5719 442.6220
  A 29.95 29.83 -102.0 0 0 395.9770 465.7155
  A 29.95 29.83 -102.0 0 0 418.9281 430.2180
  A 29.95 29.83 -102.0 0 0 383.5230 407.1245"
/>
<path stroke="#7a7a7b" vector-effect="non-scaling-stroke" d="
  M 587.28 436.71
  A 29.85 29.85 0.0 0 0 557.43 406.86
  A 29.85 29.85 0.0 0 0 527.58 436.71
  A 29.85 29.85 0.0 0 0 557.43 466.56
  A 29.85 29.85 0.0 0 0 587.28 436.71"
/>
<path stroke="#7a7a7b" vector-effect="non-scaling-stroke" d="
  M 473.67 479.79
  C 461.83 479.84 450.47 478.73 437.00 477.02
  Q 430.66 476.22 427.30 477.29
  C 415.56 481.05 423.66 500.97 427.66 507.57
  C 437.61 524.01 454.28 534.52 473.88 534.44
  C 493.48 534.36 510.08 523.72 519.89 507.20
  C 523.84 500.57 531.78 480.59 520.01 476.92
  Q 516.64 475.88 510.30 476.73
  C 496.85 478.55 485.50 479.74 473.67 479.79"
/>
</g>
<path fill="#f3f3f5" d="
  M 909.00 0.00
  L 909.00 925.00
  L 0.00 925.00
  L 0.00 0.00
  L 909.00 0.00
  Z
  M 378.37 175.78
  A 0.31 0.31 0.0 0 1 377.91 175.92
  C 368.79 169.85 358.66 164.51 348.13 161.08
  Q 346.60 160.59 341.73 158.86
  C 331.03 155.07 318.17 154.87 304.54 155.76
  Q 292.14 156.57 277.04 162.55
  C 256.51 170.67 240.17 185.37 229.05 203.26
  C 209.52 234.73 212.42 272.00 225.76 305.51
  A 0.98 0.98 0.0 0 1 224.77 306.85
  Q 213.29 305.88 202.26 305.80
  C 175.92 305.61 149.60 312.48 127.41 326.93
  C 101.81 343.61 81.40 368.89 72.27 398.16
  Q 67.20 414.41 66.10 428.79
  Q 63.49 462.87 76.69 493.02
  C 90.33 524.17 115.05 547.89 146.28 561.18
  C 156.73 565.63 170.37 568.48 181.73 571.27
  Q 188.35 572.90 193.98 575.52
  A 0.77 0.77 0.0 0 1 194.27 576.68
  Q 189.00 583.58 186.03 587.77
  C 163.24 619.92 153.46 658.20 159.81 697.05
  Q 164.44 725.40 179.51 750.60
  A 1.22 1.21 -27.0 0 1 178.94 752.34
  Q 170.62 755.89 161.02 761.61
  Q 155.77 764.74 151.84 768.40
  Q 145.09 774.69 143.64 776.43
  Q 135.34 786.33 137.99 798.49
  Q 139.46 805.21 145.52 811.83
  Q 152.21 819.12 157.09 822.20
  Q 178.07 835.45 203.28 843.73
  Q 231.97 853.16 260.20 858.78
  Q 316.80 870.06 373.76 874.15
  Q 395.66 875.73 414.25 876.75
  Q 422.19 877.19 427.50 877.24
  Q 464.89 877.58 499.74 877.38
  C 520.78 877.25 536.48 875.78 561.71 874.08
  Q 575.73 873.14 589.75 871.61
  Q 613.58 869.01 617.74 868.44
  Q 649.86 864.05 681.68 857.15
  C 706.07 851.86 729.49 844.99 753.22 835.00
  Q 769.82 828.01 782.84 817.62
  C 793.09 809.43 799.78 798.53 795.68 785.25
  C 794.01 779.85 789.14 773.76 784.87 770.15
  C 776.62 763.17 769.33 759.06 758.60 753.56
  C 744.97 746.57 729.49 741.22 715.15 737.10
  A 0.46 0.45 -77.7 0 1 714.83 736.59
  C 717.79 718.84 716.68 700.24 712.39 683.34
  Q 710.06 674.15 705.46 660.31
  Q 704.41 657.17 704.84 655.77
  C 705.99 652.01 706.51 647.82 707.88 644.07
  C 714.89 624.88 729.61 611.06 747.94 602.46
  C 764.44 594.73 784.38 586.79 800.26 576.88
  C 831.53 557.37 856.18 528.32 865.44 492.74
  Q 871.48 469.54 867.27 445.53
  Q 865.47 435.28 861.92 426.58
  C 855.32 410.37 846.41 397.84 831.97 388.13
  Q 809.95 373.34 783.43 372.78
  A 0.79 0.78 2.5 0 1 782.66 371.95
  Q 782.69 371.47 783.05 370.82
  C 798.73 342.41 805.15 308.17 793.37 277.02
  C 783.61 251.19 765.06 232.92 739.86 221.91
  Q 725.42 215.60 709.75 214.57
  Q 674.90 212.28 646.09 231.14
  Q 625.09 244.89 621.45 246.97
  Q 620.67 247.42 619.25 247.99
  A 0.69 0.68 -16.6 0 1 618.32 247.49
  Q 616.57 238.29 615.14 231.30
  Q 611.13 211.73 602.14 191.85
  C 593.67 173.12 581.15 157.61 565.72 144.02
  Q 555.64 135.13 541.84 127.97
  C 533.09 123.43 523.81 120.67 514.95 118.29
  C 491.59 112.02 466.49 113.92 443.56 121.63
  C 417.91 130.24 395.90 148.67 381.00 171.00
  Q 379.41 173.38 378.37 175.78
  Z"
/>
<path fill="#010101" d="
  M 378.37 175.78
  Q 379.41 173.38 381.00 171.00
  C 395.90 148.67 417.91 130.24 443.56 121.63
  C 466.49 113.92 491.59 112.02 514.95 118.29
  C 523.81 120.67 533.09 123.43 541.84 127.97
  Q 555.64 135.13 565.72 144.02
  C 581.15 157.61 593.67 173.12 602.14 191.85
  Q 611.13 211.73 615.14 231.30
  Q 616.57 238.29 618.32 247.49
  A 0.69 0.68 -16.6 0 0 619.25 247.99
  Q 620.67 247.42 621.45 246.97
  Q 625.09 244.89 646.09 231.14
  Q 674.90 212.28 709.75 214.57
  Q 725.42 215.60 739.86 221.91
  C 765.06 232.92 783.61 251.19 793.37 277.02
  C 805.15 308.17 798.73 342.41 783.05 370.82
  Q 782.69 371.47 782.66 371.95
  A 0.79 0.78 2.5 0 0 783.43 372.78
  Q 809.95 373.34 831.97 388.13
  C 846.41 397.84 855.32 410.37 861.92 426.58
  Q 865.47 435.28 867.27 445.53
  Q 871.48 469.54 865.44 492.74
  C 856.18 528.32 831.53 557.37 800.26 576.88
  C 784.38 586.79 764.44 594.73 747.94 602.46
  C 729.61 611.06 714.89 624.88 707.88 644.07
  C 706.51 647.82 705.99 652.01 704.84 655.77
  Q 704.41 657.17 705.46 660.31
  Q 710.06 674.15 712.39 683.34
  C 716.68 700.24 717.79 718.84 714.83 736.59
  A 0.46 0.45 -77.7 0 0 715.15 737.10
  C 729.49 741.22 744.97 746.57 758.60 753.56
  C 769.33 759.06 776.62 763.17 784.87 770.15
  C 789.14 773.76 794.01 779.85 795.68 785.25
  C 799.78 798.53 793.09 809.43 782.84 817.62
  Q 769.82 828.01 753.22 835.00
  C 729.49 844.99 706.07 851.86 681.68 857.15
  Q 649.86 864.05 617.74 868.44
  Q 613.58 869.01 589.75 871.61
  Q 575.73 873.14 561.71 874.08
  C 536.48 875.78 520.78 877.25 499.74 877.38
  Q 464.89 877.58 427.50 877.24
  Q 422.19 877.19 414.25 876.75
  Q 395.66 875.73 373.76 874.15
  Q 316.80 870.06 260.20 858.78
  Q 231.97 853.16 203.28 843.73
  Q 178.07 835.45 157.09 822.20
  Q 152.21 819.12 145.52 811.83
  Q 139.46 805.21 137.99 798.49
  Q 135.34 786.33 143.64 776.43
  Q 145.09 774.69 151.84 768.40
  Q 155.77 764.74 161.02 761.61
  Q 170.62 755.89 178.94 752.34
  A 1.22 1.21 -27.0 0 0 179.51 750.60
  Q 164.44 725.40 159.81 697.05
  C 153.46 658.20 163.24 619.92 186.03 587.77
  Q 189.00 583.58 194.27 576.68
  A 0.77 0.77 0.0 0 0 193.98 575.52
  Q 188.35 572.90 181.73 571.27
  C 170.37 568.48 156.73 565.63 146.28 561.18
  C 115.05 547.89 90.33 524.17 76.69 493.02
  Q 63.49 462.87 66.10 428.79
  Q 67.20 414.41 72.27 398.16
  C 81.40 368.89 101.81 343.61 127.41 326.93
  C 149.60 312.48 175.92 305.61 202.26 305.80
  Q 213.29 305.88 224.77 306.85
  A 0.98 0.98 0.0 0 0 225.76 305.51
  C 212.42 272.00 209.52 234.73 229.05 203.26
  C 240.17 185.37 256.51 170.67 277.04 162.55
  Q 292.14 156.57 304.54 155.76
  C 318.17 154.87 331.03 155.07 341.73 158.86
  Q 346.60 160.59 348.13 161.08
  C 358.66 164.51 368.79 169.85 377.91 175.92
  A 0.31 0.31 0.0 0 0 378.37 175.78
  Z
  M 689.65 627.30
  C 699.28 611.05 712.37 595.48 729.46 586.97
  Q 738.89 582.27 752.91 576.10
  Q 766.95 569.92 781.98 561.63
  Q 795.99 553.90 804.51 546.41
  C 826.29 527.26 841.77 504.86 845.81 475.70
  C 851.36 435.73 827.30 398.31 785.24 395.02
  C 774.03 394.14 760.93 398.31 751.56 404.14
  C 742.95 409.51 735.70 418.26 730.08 427.34
  Q 728.56 429.79 724.82 437.80
  Q 723.08 441.54 720.94 443.62
  C 715.26 449.14 705.53 446.20 703.23 439.01
  C 702.03 435.28 703.97 431.38 705.68 427.44
  C 709.83 417.88 714.97 409.19 722.46 401.13
  C 730.57 392.42 738.82 385.00 746.36 378.01
  Q 755.28 369.74 759.95 363.32
  C 772.44 346.15 779.58 322.68 776.45 301.56
  Q 774.38 287.60 767.55 275.27
  Q 754.83 252.31 731.02 242.57
  Q 704.95 231.90 677.01 240.56
  C 669.74 242.81 662.18 246.93 655.62 251.13
  Q 640.99 260.48 628.51 267.49
  C 623.99 270.03 623.08 273.48 624.10 278.43
  C 626.08 288.13 630.09 297.09 635.73 305.45
  C 639.66 311.28 644.81 316.07 649.24 320.52
  Q 652.19 323.49 652.68 324.81
  Q 655.73 333.14 648.51 337.77
  C 641.29 342.40 634.50 335.76 629.26 330.75
  Q 612.53 314.76 605.11 292.67
  Q 599.57 276.15 596.95 259.32
  Q 596.93 259.21 593.88 240.05
  C 586.76 195.27 559.39 154.86 514.43 141.24
  Q 483.20 131.78 449.60 143.43
  C 429.18 150.51 410.88 165.92 399.78 184.27
  Q 391.00 198.79 387.02 212.23
  Q 380.50 234.24 377.77 243.04
  Q 373.55 256.62 368.95 265.94
  C 345.57 313.30 295.59 340.54 243.07 332.34
  Q 228.21 330.02 219.82 329.14
  C 202.11 327.29 183.33 327.81 166.41 333.28
  C 133.99 343.75 107.79 368.86 95.72 400.46
  Q 91.48 411.57 89.21 426.87
  Q 87.68 437.14 88.52 447.19
  C 90.34 468.64 97.43 489.14 110.66 506.10
  Q 117.76 515.19 123.49 520.25
  Q 142.43 536.96 166.30 544.69
  Q 172.57 546.72 188.67 550.63
  C 196.41 552.51 204.01 554.89 209.12 556.45
  A 2.89 2.88 -57.4 0 0 211.88 555.84
  Q 215.27 552.79 218.91 548.15
  Q 224.77 540.67 231.38 529.88
  Q 239.15 517.21 240.84 502.83
  Q 241.50 497.21 242.72 495.52
  C 246.48 490.28 253.60 489.01 258.37 493.20
  C 263.06 497.32 262.72 503.02 261.72 509.67
  Q 259.68 523.21 253.20 535.45
  Q 247.03 547.11 242.69 553.46
  Q 235.52 563.94 226.65 574.17
  Q 212.54 590.44 212.05 591.04
  Q 200.91 604.57 193.58 619.36
  C 177.35 652.10 176.39 692.22 192.25 725.53
  Q 204.16 750.54 224.01 769.41
  C 229.46 774.58 237.03 780.14 242.86 783.89
  Q 266.25 798.92 293.62 803.12
  C 321.39 807.38 348.70 802.64 373.05 789.75
  Q 382.52 784.73 393.52 776.44
  Q 402.91 769.35 411.26 759.74
  Q 422.88 746.37 433.94 728.94
  Q 438.05 722.46 441.03 714.96
  A 1.52 1.47 -44.2 0 0 441.06 713.94
  C 439.72 709.99 439.20 705.30 437.63 700.99
  C 432.44 686.81 424.75 675.70 411.99 668.66
  Q 406.06 665.39 405.03 663.70
  C 402.17 659.04 402.63 653.09 407.39 649.67
  Q 413.69 645.14 420.73 649.05
  Q 444.73 662.38 456.09 688.99
  Q 459.98 698.09 463.42 710.36
  C 468.32 727.80 472.62 743.66 479.92 759.07
  Q 492.53 785.67 515.30 804.72
  C 518.14 807.10 520.47 808.42 524.03 810.94
  C 533.13 817.38 544.82 822.48 554.28 824.95
  Q 586.38 833.32 618.46 822.37
  C 648.43 812.14 673.26 787.60 685.63 758.74
  Q 690.17 748.16 691.90 738.69
  Q 693.85 728.05 694.37 717.79
  Q 694.57 713.71 693.89 705.97
  C 693.11 697.12 691.56 688.46 688.46 680.53
  C 685.80 673.71 683.35 668.23 679.64 661.51
  Q 672.09 647.83 670.54 644.22
  C 658.02 615.09 650.70 584.26 659.47 552.99
  Q 661.63 545.29 664.64 539.39
  C 667.50 533.77 673.59 530.57 679.46 534.04
  Q 684.94 537.29 685.18 542.75
  Q 685.28 545.16 682.90 551.09
  Q 674.80 571.22 678.01 593.04
  Q 679.35 602.12 681.93 610.69
  Q 684.28 618.48 689.01 627.28
  A 0.37 0.36 46.4 0 0 689.65 627.30
  Z
  M 368.07 198.31
  A 1.76 1.75 29.0 0 0 367.49 196.31
  C 358.13 189.12 347.42 183.08 335.71 180.31
  Q 307.95 173.75 282.95 184.19
  C 273.00 188.34 263.87 196.02 256.71 204.10
  C 240.41 222.50 234.18 247.61 239.14 271.63
  C 241.55 283.30 245.56 294.70 250.14 305.88
  Q 251.21 308.51 252.29 310.03
  A 2.92 2.88 -14.7 0 0 254.41 311.25
  C 273.07 312.97 292.57 307.72 308.97 298.91
  C 328.57 288.39 343.63 268.87 351.61 248.68
  Q 356.75 235.69 358.28 230.26
  C 362.45 215.51 365.02 206.51 368.07 198.31
  Z"
/>
<path fill="#f3f3f5" d="
  M 689.65 627.30
  A 0.37 0.36 46.4 0 1 689.01 627.28
  Q 684.28 618.48 681.93 610.69
  Q 679.35 602.12 678.01 593.04
  Q 674.80 571.22 682.90 551.09
  Q 685.28 545.16 685.18 542.75
  Q 684.94 537.29 679.46 534.04
  C 673.59 530.57 667.50 533.77 664.64 539.39
  Q 661.63 545.29 659.47 552.99
  C 650.70 584.26 658.02 615.09 670.54 644.22
  Q 672.09 647.83 679.64 661.51
  C 683.35 668.23 685.80 673.71 688.46 680.53
  C 691.56 688.46 693.11 697.12 693.89 705.97
  Q 694.57 713.71 694.37 717.79
  Q 693.85 728.05 691.90 738.69
  Q 690.17 748.16 685.63 758.74
  C 673.26 787.60 648.43 812.14 618.46 822.37
  Q 586.38 833.32 554.28 824.95
  C 544.82 822.48 533.13 817.38 524.03 810.94
  C 520.47 808.42 518.14 807.10 515.30 804.72
  Q 492.53 785.67 479.92 759.07
  C 472.62 743.66 468.32 727.80 463.42 710.36
  Q 459.98 698.09 456.09 688.99
  Q 444.73 662.38 420.73 649.05
  Q 413.69 645.14 407.39 649.67
  C 402.63 653.09 402.17 659.04 405.03 663.70
  Q 406.06 665.39 411.99 668.66
  C 424.75 675.70 432.44 686.81 437.63 700.99
  C 439.20 705.30 439.72 709.99 441.06 713.94
  A 1.52 1.47 -44.2 0 1 441.03 714.96
  Q 438.05 722.46 433.94 728.94
  Q 422.88 746.37 411.26 759.74
  Q 402.91 769.35 393.52 776.44
  Q 382.52 784.73 373.05 789.75
  C 348.70 802.64 321.39 807.38 293.62 803.12
  Q 266.25 798.92 242.86 783.89
  C 237.03 780.14 229.46 774.58 224.01 769.41
  Q 204.16 750.54 192.25 725.53
  C 176.39 692.22 177.35 652.10 193.58 619.36
  Q 200.91 604.57 212.05 591.04
  Q 212.54 590.44 226.65 574.17
  Q 235.52 563.94 242.69 553.46
  Q 247.03 547.11 253.20 535.45
  Q 259.68 523.21 261.72 509.67
  C 262.72 503.02 263.06 497.32 258.37 493.20
  C 253.60 489.01 246.48 490.28 242.72 495.52
  Q 241.50 497.21 240.84 502.83
  Q 239.15 517.21 231.38 529.88
  Q 224.77 540.67 218.91 548.15
  Q 215.27 552.79 211.88 555.84
  A 2.89 2.88 -57.4 0 1 209.12 556.45
  C 204.01 554.89 196.41 552.51 188.67 550.63
  Q 172.57 546.72 166.30 544.69
  Q 142.43 536.96 123.49 520.25
  Q 117.76 515.19 110.66 506.10
  C 97.43 489.14 90.34 468.64 88.52 447.19
  Q 87.68 437.14 89.21 426.87
  Q 91.48 411.57 95.72 400.46
  C 107.79 368.86 133.99 343.75 166.41 333.28
  C 183.33 327.81 202.11 327.29 219.82 329.14
  Q 228.21 330.02 243.07 332.34
  C 295.59 340.54 345.57 313.30 368.95 265.94
  Q 373.55 256.62 377.77 243.04
  Q 380.50 234.24 387.02 212.23
  Q 391.00 198.79 399.78 184.27
  C 410.88 165.92 429.18 150.51 449.60 143.43
  Q 483.20 131.78 514.43 141.24
  C 559.39 154.86 586.76 195.27 593.88 240.05
  Q 596.93 259.21 596.95 259.32
  Q 599.57 276.15 605.11 292.67
  Q 612.53 314.76 629.26 330.75
  C 634.50 335.76 641.29 342.40 648.51 337.77
  Q 655.73 333.14 652.68 324.81
  Q 652.19 323.49 649.24 320.52
  C 644.81 316.07 639.66 311.28 635.73 305.45
  C 630.09 297.09 626.08 288.13 624.10 278.43
  C 623.08 273.48 623.99 270.03 628.51 267.49
  Q 640.99 260.48 655.62 251.13
  C 662.18 246.93 669.74 242.81 677.01 240.56
  Q 704.95 231.90 731.02 242.57
  Q 754.83 252.31 767.55 275.27
  Q 774.38 287.60 776.45 301.56
  C 779.58 322.68 772.44 346.15 759.95 363.32
  Q 755.28 369.74 746.36 378.01
  C 738.82 385.00 730.57 392.42 722.46 401.13
  C 714.97 409.19 709.83 417.88 705.68 427.44
  C 703.97 431.38 702.03 435.28 703.23 439.01
  C 705.53 446.20 715.26 449.14 720.94 443.62
  Q 723.08 441.54 724.82 437.80
  Q 728.56 429.79 730.08 427.34
  C 735.70 418.26 742.95 409.51 751.56 404.14
  C 760.93 398.31 774.03 394.14 785.24 395.02
  C 827.30 398.31 851.36 435.73 845.81 475.70
  C 841.77 504.86 826.29 527.26 804.51 546.41
  Q 795.99 553.90 781.98 561.63
  Q 766.95 569.92 752.91 576.10
  Q 738.89 582.27 729.46 586.97
  C 712.37 595.48 699.28 611.05 689.65 627.30
  Z
  M 383.5230 407.1245
  A 29.95 29.83 -102.0 0 0 360.5719 442.6220
  A 29.95 29.83 -102.0 0 0 395.9770 465.7155
  A 29.95 29.83 -102.0 0 0 418.9281 430.2180
  A 29.95 29.83 -102.0 0 0 383.5230 407.1245
  Z
  M 587.28 436.71
  A 29.85 29.85 0.0 0 0 557.43 406.86
  A 29.85 29.85 0.0 0 0 527.58 436.71
  A 29.85 29.85 0.0 0 0 557.43 466.56
  A 29.85 29.85 0.0 0 0 587.28 436.71
  Z
  M 473.67 479.79
  C 461.83 479.84 450.47 478.73 437.00 477.02
  Q 430.66 476.22 427.30 477.29
  C 415.56 481.05 423.66 500.97 427.66 507.57
  C 437.61 524.01 454.28 534.52 473.88 534.44
  C 493.48 534.36 510.08 523.72 519.89 507.20
  C 523.84 500.57 531.78 480.59 520.01 476.92
  Q 516.64 475.88 510.30 476.73
  C 496.85 478.55 485.50 479.74 473.67 479.79
  Z"
/>
<path fill="#f3f3f5" d="
  M 368.07 198.31
  C 365.02 206.51 362.45 215.51 358.28 230.26
  Q 356.75 235.69 351.61 248.68
  C 343.63 268.87 328.57 288.39 308.97 298.91
  C 292.57 307.72 273.07 312.97 254.41 311.25
  A 2.92 2.88 -14.7 0 1 252.29 310.03
  Q 251.21 308.51 250.14 305.88
  C 245.56 294.70 241.55 283.30 239.14 271.63
  C 234.18 247.61 240.41 222.50 256.71 204.10
  C 263.87 196.02 273.00 188.34 282.95 184.19
  Q 307.95 173.75 335.71 180.31
  C 347.42 183.08 358.13 189.12 367.49 196.31
  A 1.76 1.75 29.0 0 1 368.07 198.31
  Z"
/>
<ellipse fill="#010101" cx="0.00" cy="0.00" transform="translate(389.75,436.42) rotate(-102.0)" rx="29.95" ry="29.83"/>
<circle fill="#010101" cx="557.43" cy="436.71" r="29.85"/>
<path fill="#010101" d="
  M 473.88 534.44
  C 454.28 534.52 437.61 524.01 427.66 507.57
  C 423.66 500.97 415.56 481.05 427.30 477.29
  Q 430.66 476.22 437.00 477.02
  C 450.47 478.73 461.83 479.84 473.67 479.79
  C 485.50 479.74 496.85 478.55 510.30 476.73
  Q 516.64 475.88 520.01 476.92
  C 531.78 480.59 523.84 500.57 519.89 507.20
  C 510.08 523.72 493.48 534.36 473.88 534.44
  Z"
/>
</svg>
