<svg width="884" height="772" viewBox="0 0 884 772" fill="none" xmlns="http://www.w3.org/2000/svg">
<rect x="238" y="136" width="408" height="408" rx="80" fill="black"/>
<path d="M408.64 278.16C409.237 280.549 409.536 283.536 409.536 287.12C409.536 290.555 409.237 293.541 408.64 296.08H399.68C400.277 298.469 400.576 301.456 400.576 305.04C400.576 308.475 400.277 311.461 399.68 314H354.88C354.283 311.461 353.984 308.475 353.984 305.04C353.984 301.456 354.283 298.469 354.88 296.08H345.92C345.323 293.541 345.024 290.555 345.024 287.12C345.024 283.536 345.323 280.549 345.92 278.16H336.96C336.363 275.621 336.064 272.635 336.064 269.2C336.064 265.616 336.363 262.629 336.96 260.24C336.363 257.701 336.064 254.715 336.064 251.28C336.064 247.696 336.363 244.709 336.96 242.32C336.363 239.781 336.064 236.795 336.064 233.36C336.064 229.776 336.363 226.789 336.96 224.4H345.92C345.323 221.861 345.024 218.875 345.024 215.44C345.024 211.856 345.323 208.869 345.92 206.48H354.88C354.283 203.941 353.984 200.955 353.984 197.52C353.984 193.936 354.283 190.949 354.88 188.56H399.68C400.277 190.949 400.576 193.936 400.576 197.52C400.576 200.955 400.277 203.941 399.68 206.48H408.64C409.237 208.869 409.536 211.856 409.536 215.44C409.536 218.875 409.237 221.861 408.64 224.4H390.72C390.123 221.861 389.824 218.875 389.824 215.44C389.824 211.856 390.123 208.869 390.72 206.48H363.84C364.437 208.869 364.736 211.856 364.736 215.44C364.736 218.875 364.437 221.861 363.84 224.4H354.88C355.477 226.789 355.776 229.776 355.776 233.36C355.776 236.795 355.477 239.781 354.88 242.32C355.477 244.709 355.776 247.696 355.776 251.28C355.776 254.715 355.477 257.701 354.88 260.24C355.477 262.629 355.776 265.616 355.776 269.2C355.776 272.635 355.477 275.621 354.88 278.16H363.84C364.437 280.549 364.736 283.536 364.736 287.12C364.736 290.555 364.437 293.541 363.84 296.08H390.72C390.123 293.541 389.824 290.555 389.824 287.12C389.824 283.536 390.123 280.549 390.72 278.16H408.64ZM545.368 296.08C545.965 298.469 546.264 301.456 546.264 305.04C546.264 308.475 545.965 311.461 545.368 314H482.648C482.05 311.461 481.752 308.475 481.752 305.04C481.752 301.456 482.05 298.469 482.648 296.08C482.05 293.541 481.752 290.555 481.752 287.12C481.752 283.536 482.05 280.549 482.648 278.16C482.05 275.621 481.752 272.635 481.752 269.2C481.752 265.616 482.05 262.629 482.648 260.24C482.05 257.701 481.752 254.715 481.752 251.28C481.752 247.696 482.05 244.709 482.648 242.32C482.05 239.781 481.752 236.795 481.752 233.36C481.752 229.776 482.05 226.789 482.648 224.4C482.05 221.861 481.752 218.875 481.752 215.44C481.752 211.856 482.05 208.869 482.648 206.48C482.05 203.941 481.752 200.955 481.752 197.52C481.752 193.936 482.05 190.949 482.648 188.56H500.568C501.165 190.949 501.464 193.936 501.464 197.52C501.464 200.955 501.165 203.941 500.568 206.48C501.165 208.869 501.464 211.856 501.464 215.44C501.464 218.875 501.165 221.861 500.568 224.4C501.165 226.789 501.464 229.776 501.464 233.36C501.464 236.795 501.165 239.781 500.568 242.32C501.165 244.709 501.464 247.696 501.464 251.28C501.464 254.715 501.165 257.701 500.568 260.24C501.165 262.629 501.464 265.616 501.464 269.2C501.464 272.635 501.165 275.621 500.568 278.16C501.165 280.549 501.464 283.536 501.464 287.12C501.464 290.555 501.165 293.541 500.568 296.08H545.368ZM409.536 457.12C409.536 460.555 409.237 463.541 408.64 466.08C409.237 468.469 409.536 471.456 409.536 475.04C409.536 478.475 409.237 481.461 408.64 484H390.72C390.123 481.461 389.824 478.475 389.824 475.04C389.824 471.456 390.123 468.469 390.72 466.08C390.123 463.541 389.824 460.555 389.824 457.12C389.824 453.536 390.123 450.549 390.72 448.16H354.88C355.477 450.549 355.776 453.536 355.776 457.12C355.776 460.555 355.477 463.541 354.88 466.08C355.477 468.469 355.776 471.456 355.776 475.04C355.776 478.475 355.477 481.461 354.88 484H336.96C336.363 481.461 336.064 478.475 336.064 475.04C336.064 471.456 336.363 468.469 336.96 466.08C336.363 463.541 336.064 460.555 336.064 457.12C336.064 453.536 336.363 450.549 336.96 448.16H343.68C343.083 445.621 342.784 442.635 342.784 439.2C342.784 435.616 343.083 432.629 343.68 430.24C343.083 427.701 342.784 424.715 342.784 421.28C342.784 417.696 343.083 414.709 343.68 412.32H348.16C347.563 409.781 347.264 406.795 347.264 403.36C347.264 399.776 347.563 396.789 348.16 394.4H354.88C354.283 391.861 353.984 388.875 353.984 385.44C353.984 381.856 354.283 378.869 354.88 376.48H359.36C358.763 373.941 358.464 370.955 358.464 367.52C358.464 363.936 358.763 360.949 359.36 358.56H386.24C386.837 360.949 387.136 363.936 387.136 367.52C387.136 370.955 386.837 373.941 386.24 376.48H390.72C391.317 378.869 391.616 381.856 391.616 385.44C391.616 388.875 391.317 391.861 390.72 394.4H397.44C398.037 396.789 398.336 399.776 398.336 403.36C398.336 406.795 398.037 409.781 397.44 412.32H401.92C402.517 414.709 402.816 417.696 402.816 421.28C402.816 424.715 402.517 427.701 401.92 430.24C402.517 432.629 402.816 435.616 402.816 439.2C402.816 442.635 402.517 445.621 401.92 448.16H408.64C409.237 450.549 409.536 453.536 409.536 457.12ZM384 430.24C383.403 427.701 383.104 424.715 383.104 421.28C383.104 417.696 383.403 414.709 384 412.32H379.52C378.923 409.781 378.624 406.795 378.624 403.36C378.624 399.776 378.923 396.789 379.52 394.4H366.08C366.677 396.789 366.976 399.776 366.976 403.36C366.976 406.795 366.677 409.781 366.08 412.32H361.6C362.197 414.709 362.496 417.696 362.496 421.28C362.496 424.715 362.197 427.701 361.6 430.24H384ZM546.264 367.52C546.264 370.955 545.965 373.941 545.368 376.48C545.965 378.869 546.264 381.856 546.264 385.44C546.264 388.875 545.965 391.861 545.368 394.4H536.408C537.005 396.789 537.304 399.776 537.304 403.36C537.304 406.795 537.005 409.781 536.408 412.32H527.448C528.045 414.709 528.344 417.696 528.344 421.28C528.344 424.715 528.045 427.701 527.448 430.24H518.488C519.085 432.629 519.384 435.616 519.384 439.2C519.384 442.635 519.085 445.621 518.488 448.16C519.085 450.549 519.384 453.536 519.384 457.12C519.384 460.555 519.085 463.541 518.488 466.08C519.085 468.469 519.384 471.456 519.384 475.04C519.384 478.475 519.085 481.461 518.488 484H500.568C499.97 481.461 499.672 478.475 499.672 475.04C499.672 471.456 499.97 468.469 500.568 466.08C499.97 463.541 499.672 460.555 499.672 457.12C499.672 453.536 499.97 450.549 500.568 448.16C499.97 445.621 499.672 442.635 499.672 439.2C499.672 435.616 499.97 432.629 500.568 430.24H491.608C491.01 427.701 490.712 424.715 490.712 421.28C490.712 417.696 491.01 414.709 491.608 412.32H482.648C482.05 409.781 481.752 406.795 481.752 403.36C481.752 399.776 482.05 396.789 482.648 394.4H473.688C473.09 391.861 472.792 388.875 472.792 385.44C472.792 381.856 473.09 378.869 473.688 376.48C473.09 373.941 472.792 370.955 472.792 367.52C472.792 363.936 473.09 360.949 473.688 358.56H491.608C492.205 360.949 492.504 363.936 492.504 367.52C492.504 370.955 492.205 373.941 491.608 376.48C492.205 378.869 492.504 381.856 492.504 385.44C492.504 388.875 492.205 391.861 491.608 394.4H500.568C501.165 396.789 501.464 399.776 501.464 403.36C501.464 406.795 501.165 409.781 500.568 412.32H518.488C517.89 409.781 517.592 406.795 517.592 403.36C517.592 399.776 517.89 396.789 518.488 394.4H527.448C526.85 391.861 526.552 388.875 526.552 385.44C526.552 381.856 526.85 378.869 527.448 376.48C526.85 373.941 526.552 370.955 526.552 367.52C526.552 363.936 526.85 360.949 527.448 358.56H545.368C545.965 360.949 546.264 363.936 546.264 367.52Z" fill="white"/>
</svg>
