<svg xmlns="http://www.w3.org/2000/svg" viewBox="0 0 1024 1024">
  <path d="M 924.00 512.00 L 923.95 605.51 L 923.80 635.37 L 923.55 657.07 L 923.21 674.71 L 922.76 689.84 L 922.21 703.21 L 921.56 715.26 L 920.81 726.28 L 919.97 736.47 L 919.02 745.95 L 917.96 754.84 L 916.81 763.20 L 915.55 771.12 L 914.19 778.62 L 912.73 785.76 L 911.16 792.56 L 909.48 799.07 L 907.70 805.29 L 905.81 811.25 L 903.80 816.97 L 901.69 822.46 L 899.47 827.73 L 897.13 832.80 L 894.68 837.68 L 892.11 842.38 L 889.42 846.89 L 886.61 851.24 L 883.68 855.43 L 880.62 859.46 L 877.44 863.34 L 874.12 867.08 L 870.67 870.67 L 867.08 874.12 L 863.34 877.44 L 859.46 880.62 L 855.43 883.68 L 851.24 886.61 L 846.89 889.42 L 842.38 892.11 L 837.68 894.68 L 832.80 897.13 L 827.73 899.47 L 822.46 901.69 L 816.97 903.80 L 811.25 905.81 L 805.29 907.70 L 799.07 909.48 L 792.56 911.16 L 785.76 912.73 L 778.62 914.19 L 771.12 915.55 L 763.20 916.81 L 754.84 917.96 L 745.95 919.02 L 736.47 919.97 L 726.28 920.81 L 715.26 921.56 L 703.21 922.21 L 689.84 922.76 L 674.71 923.21 L 657.07 923.55 L 635.37 923.80 L 605.51 923.95 L 512.00 924.00 L 418.49 923.95 L 388.63 923.80 L 366.93 923.55 L 349.29 923.21 L 334.16 922.76 L 320.79 922.21 L 308.74 921.56 L 297.72 920.81 L 287.53 919.97 L 278.05 919.02 L 269.16 917.96 L 260.80 916.81 L 252.88 915.55 L 245.38 914.19 L 238.24 912.73 L 231.44 911.16 L 224.93 909.48 L 218.71 907.70 L 212.75 905.81 L 207.03 903.80 L 201.54 901.69 L 196.27 899.47 L 191.20 897.13 L 186.32 894.68 L 181.62 892.11 L 177.11 889.42 L 172.76 886.61 L 168.57 883.68 L 164.54 880.62 L 160.66 877.44 L 156.92 874.12 L 153.33 870.67 L 149.88 867.08 L 146.56 863.34 L 143.38 859.46 L 140.32 855.43 L 137.39 851.24 L 134.58 846.89 L 131.89 842.38 L 129.32 837.68 L 126.87 832.80 L 124.53 827.73 L 122.31 822.46 L 120.20 816.97 L 118.19 811.25 L 116.30 805.29 L 114.52 799.07 L 112.84 792.56 L 111.27 785.76 L 109.81 778.62 L 108.45 771.12 L 107.19 763.20 L 106.04 754.84 L 104.98 745.95 L 104.03 736.47 L 103.19 726.28 L 102.44 715.26 L 101.79 703.21 L 101.24 689.84 L 100.79 674.71 L 100.45 657.07 L 100.20 635.37 L 100.05 605.51 L 100.00 512.00 L 100.05 418.49 L 100.20 388.63 L 100.45 366.93 L 100.79 349.29 L 101.24 334.16 L 101.79 320.79 L 102.44 308.74 L 103.19 297.72 L 104.03 287.53 L 104.98 278.05 L 106.04 269.16 L 107.19 260.80 L 108.45 252.88 L 109.81 245.38 L 111.27 238.24 L 112.84 231.44 L 114.52 224.93 L 116.30 218.71 L 118.19 212.75 L 120.20 207.03 L 122.31 201.54 L 124.53 196.27 L 126.87 191.20 L 129.32 186.32 L 131.89 181.62 L 134.58 177.11 L 137.39 172.76 L 140.32 168.57 L 143.38 164.54 L 146.56 160.66 L 149.88 156.92 L 153.33 153.33 L 156.92 149.88 L 160.66 146.56 L 164.54 143.38 L 168.57 140.32 L 172.76 137.39 L 177.11 134.58 L 181.62 131.89 L 186.32 129.32 L 191.20 126.87 L 196.27 124.53 L 201.54 122.31 L 207.03 120.20 L 212.75 118.19 L 218.71 116.30 L 224.93 114.52 L 231.44 112.84 L 238.24 111.27 L 245.38 109.81 L 252.88 108.45 L 260.80 107.19 L 269.16 106.04 L 278.05 104.98 L 287.53 104.03 L 297.72 103.19 L 308.74 102.44 L 320.79 101.79 L 334.16 101.24 L 349.29 100.79 L 366.93 100.45 L 388.63 100.20 L 418.49 100.05 L 512.00 100.00 L 605.51 100.05 L 635.37 100.20 L 657.07 100.45 L 674.71 100.79 L 689.84 101.24 L 703.21 101.79 L 715.26 102.44 L 726.28 103.19 L 736.47 104.03 L 745.95 104.98 L 754.84 106.04 L 763.20 107.19 L 771.12 108.45 L 778.62 109.81 L 785.76 111.27 L 792.56 112.84 L 799.07 114.52 L 805.29 116.30 L 811.25 118.19 L 816.97 120.20 L 822.46 122.31 L 827.73 124.53 L 832.80 126.87 L 837.68 129.32 L 842.38 131.89 L 846.89 134.58 L 851.24 137.39 L 855.43 140.32 L 859.46 143.38 L 863.34 146.56 L 867.08 149.88 L 870.67 153.33 L 874.12 156.92 L 877.44 160.66 L 880.62 164.54 L 883.68 168.57 L 886.61 172.76 L 889.42 177.11 L 892.11 181.62 L 894.68 186.32 L 897.13 191.20 L 899.47 196.27 L 901.69 201.54 L 903.80 207.03 L 905.81 212.75 L 907.70 218.71 L 909.48 224.93 L 911.16 231.44 L 912.73 238.24 L 914.19 245.38 L 915.55 252.88 L 916.81 260.80 L 917.96 269.16 L 919.02 278.05 L 919.97 287.53 L 920.81 297.72 L 921.56 308.74 L 922.21 320.79 L 922.76 334.16 L 923.21 349.29 L 923.55 366.93 L 923.80 388.63 L 923.95 418.49 Z" fill="#000000"/>
  <g transform="translate(176.80 165.69) scale(0.7170)">
    <g id="blob">
  <g stroke-linejoin="round" stroke-linecap="round">
    <path d="  M 689.65 627.30
  A 0.37 0.36 46.4 0 1 689.01 627.28
  Q 684.28 618.48 681.93 610.69
  Q 679.35 602.12 678.01 593.04
  Q 674.80 571.22 682.90 551.09
  Q 685.28 545.16 685.18 542.75
  Q 684.94 537.29 679.46 534.04
  C 673.59 530.57 667.50 533.77 664.64 539.39
  Q 661.63 545.29 659.47 552.99
  C 650.70 584.26 658.02 615.09 670.54 644.22
  Q 672.09 647.83 679.64 661.51
  C 683.35 668.23 685.80 673.71 688.46 680.53
  C 691.56 688.46 693.11 697.12 693.89 705.97
  Q 694.57 713.71 694.37 717.79
  Q 693.85 728.05 691.90 738.69
  Q 690.17 748.16 685.63 758.74
  C 673.26 787.60 648.43 812.14 618.46 822.37
  Q 586.38 833.32 554.28 824.95
  C 544.82 822.48 533.13 817.38 524.03 810.94
  C 520.47 808.42 518.14 807.10 515.30 804.72
  Q 492.53 785.67 479.92 759.07
  C 472.62 743.66 468.32 727.80 463.42 710.36
  Q 459.98 698.09 456.09 688.99
  Q 444.73 662.38 420.73 649.05
  Q 413.69 645.14 407.39 649.67
  C 402.63 653.09 402.17 659.04 405.03 663.70
  Q 406.06 665.39 411.99 668.66
  C 424.75 675.70 432.44 686.81 437.63 700.99
  C 439.20 705.30 439.72 709.99 441.06 713.94
  A 1.52 1.47 -44.2 0 1 441.03 714.96
  Q 438.05 722.46 433.94 728.94
  Q 422.88 746.37 411.26 759.74
  Q 402.91 769.35 393.52 776.44
  Q 382.52 784.73 373.05 789.75
  C 348.70 802.64 321.39 807.38 293.62 803.12
  Q 266.25 798.92 242.86 783.89
  C 237.03 780.14 229.46 774.58 224.01 769.41
  Q 204.16 750.54 192.25 725.53
  C 176.39 692.22 177.35 652.10 193.58 619.36
  Q 200.91 604.57 212.05 591.04
  Q 212.54 590.44 226.65 574.17
  Q 235.52 563.94 242.69 553.46
  Q 247.03 547.11 253.20 535.45
  Q 259.68 523.21 261.72 509.67
  C 262.72 503.02 263.06 497.32 258.37 493.20
  C 253.60 489.01 246.48 490.28 242.72 495.52
  Q 241.50 497.21 240.84 502.83
  Q 239.15 517.21 231.38 529.88
  Q 224.77 540.67 218.91 548.15
  Q 215.27 552.79 211.88 555.84
  A 2.89 2.88 -57.4 0 1 209.12 556.45
  C 204.01 554.89 196.41 552.51 188.67 550.63
  Q 172.57 546.72 166.30 544.69
  Q 142.43 536.96 123.49 520.25
  Q 117.76 515.19 110.66 506.10
  C 97.43 489.14 90.34 468.64 88.52 447.19
  Q 87.68 437.14 89.21 426.87
  Q 91.48 411.57 95.72 400.46
  C 107.79 368.86 133.99 343.75 166.41 333.28
  C 183.33 327.81 202.11 327.29 219.82 329.14
  Q 228.21 330.02 243.07 332.34
  C 295.59 340.54 345.57 313.30 368.95 265.94
  Q 373.55 256.62 377.77 243.04
  Q 380.50 234.24 387.02 212.23
  Q 391.00 198.79 399.78 184.27
  C 410.88 165.92 429.18 150.51 449.60 143.43
  Q 483.20 131.78 514.43 141.24
  C 559.39 154.86 586.76 195.27 593.88 240.05
  Q 596.93 259.21 596.95 259.32
  Q 599.57 276.15 605.11 292.67
  Q 612.53 314.76 629.26 330.75
  C 634.50 335.76 641.29 342.40 648.51 337.77
  Q 655.73 333.14 652.68 324.81
  Q 652.19 323.49 649.24 320.52
  C 644.81 316.07 639.66 311.28 635.73 305.45
  C 630.09 297.09 626.08 288.13 624.10 278.43
  C 623.08 273.48 623.99 270.03 628.51 267.49
  Q 640.99 260.48 655.62 251.13
  C 662.18 246.93 669.74 242.81 677.01 240.56
  Q 704.95 231.90 731.02 242.57
  Q 754.83 252.31 767.55 275.27
  Q 774.38 287.60 776.45 301.56
  C 779.58 322.68 772.44 346.15 759.95 363.32
  Q 755.28 369.74 746.36 378.01
  C 738.82 385.00 730.57 392.42 722.46 401.13
  C 714.97 409.19 709.83 417.88 705.68 427.44
  C 703.97 431.38 702.03 435.28 703.23 439.01
  C 705.53 446.20 715.26 449.14 720.94 443.62
  Q 723.08 441.54 724.82 437.80
  Q 728.56 429.79 730.08 427.34
  C 735.70 418.26 742.95 409.51 751.56 404.14
  C 760.93 398.31 774.03 394.14 785.24 395.02
  C 827.30 398.31 851.36 435.73 845.81 475.70
  C 841.77 504.86 826.29 527.26 804.51 546.41
  Q 795.99 553.90 781.98 561.63
  Q 766.95 569.92 752.91 576.10
  Q 738.89 582.27 729.46 586.97
  C 712.37 595.48 699.28 611.05 689.65 627.30
  Z" fill="none" stroke="#010101" stroke-width="46"/>
    <path d="M 368.07 198.31
  C 365.02 206.51 362.45 215.51 358.28 230.26
  Q 356.75 235.69 351.61 248.68
  C 343.63 268.87 328.57 288.39 308.97 298.91
  C 292.57 307.72 273.07 312.97 254.41 311.25
  A 2.92 2.88 -14.7 0 1 252.29 310.03
  Q 251.21 308.51 250.14 305.88
  C 245.56 294.70 241.55 283.30 239.14 271.63
  C 234.18 247.61 240.41 222.50 256.71 204.10
  C 263.87 196.02 273.00 188.34 282.95 184.19
  Q 307.95 173.75 335.71 180.31
  C 347.42 183.08 358.13 189.12 367.49 196.31
  A 1.76 1.75 29.0 0 1 368.07 198.31
  Z" fill="none" stroke="#010101" stroke-width="46"/>
    <path d="  M 689.65 627.30
  A 0.37 0.36 46.4 0 1 689.01 627.28
  Q 684.28 618.48 681.93 610.69
  Q 679.35 602.12 678.01 593.04
  Q 674.80 571.22 682.90 551.09
  Q 685.28 545.16 685.18 542.75
  Q 684.94 537.29 679.46 534.04
  C 673.59 530.57 667.50 533.77 664.64 539.39
  Q 661.63 545.29 659.47 552.99
  C 650.70 584.26 658.02 615.09 670.54 644.22
  Q 672.09 647.83 679.64 661.51
  C 683.35 668.23 685.80 673.71 688.46 680.53
  C 691.56 688.46 693.11 697.12 693.89 705.97
  Q 694.57 713.71 694.37 717.79
  Q 693.85 728.05 691.90 738.69
  Q 690.17 748.16 685.63 758.74
  C 673.26 787.60 648.43 812.14 618.46 822.37
  Q 586.38 833.32 554.28 824.95
  C 544.82 822.48 533.13 817.38 524.03 810.94
  C 520.47 808.42 518.14 807.10 515.30 804.72
  Q 492.53 785.67 479.92 759.07
  C 472.62 743.66 468.32 727.80 463.42 710.36
  Q 459.98 698.09 456.09 688.99
  Q 444.73 662.38 420.73 649.05
  Q 413.69 645.14 407.39 649.67
  C 402.63 653.09 402.17 659.04 405.03 663.70
  Q 406.06 665.39 411.99 668.66
  C 424.75 675.70 432.44 686.81 437.63 700.99
  C 439.20 705.30 439.72 709.99 441.06 713.94
  A 1.52 1.47 -44.2 0 1 441.03 714.96
  Q 438.05 722.46 433.94 728.94
  Q 422.88 746.37 411.26 759.74
  Q 402.91 769.35 393.52 776.44
  Q 382.52 784.73 373.05 789.75
  C 348.70 802.64 321.39 807.38 293.62 803.12
  Q 266.25 798.92 242.86 783.89
  C 237.03 780.14 229.46 774.58 224.01 769.41
  Q 204.16 750.54 192.25 725.53
  C 176.39 692.22 177.35 652.10 193.58 619.36
  Q 200.91 604.57 212.05 591.04
  Q 212.54 590.44 226.65 574.17
  Q 235.52 563.94 242.69 553.46
  Q 247.03 547.11 253.20 535.45
  Q 259.68 523.21 261.72 509.67
  C 262.72 503.02 263.06 497.32 258.37 493.20
  C 253.60 489.01 246.48 490.28 242.72 495.52
  Q 241.50 497.21 240.84 502.83
  Q 239.15 517.21 231.38 529.88
  Q 224.77 540.67 218.91 548.15
  Q 215.27 552.79 211.88 555.84
  A 2.89 2.88 -57.4 0 1 209.12 556.45
  C 204.01 554.89 196.41 552.51 188.67 550.63
  Q 172.57 546.72 166.30 544.69
  Q 142.43 536.96 123.49 520.25
  Q 117.76 515.19 110.66 506.10
  C 97.43 489.14 90.34 468.64 88.52 447.19
  Q 87.68 437.14 89.21 426.87
  Q 91.48 411.57 95.72 400.46
  C 107.79 368.86 133.99 343.75 166.41 333.28
  C 183.33 327.81 202.11 327.29 219.82 329.14
  Q 228.21 330.02 243.07 332.34
  C 295.59 340.54 345.57 313.30 368.95 265.94
  Q 373.55 256.62 377.77 243.04
  Q 380.50 234.24 387.02 212.23
  Q 391.00 198.79 399.78 184.27
  C 410.88 165.92 429.18 150.51 449.60 143.43
  Q 483.20 131.78 514.43 141.24
  C 559.39 154.86 586.76 195.27 593.88 240.05
  Q 596.93 259.21 596.95 259.32
  Q 599.57 276.15 605.11 292.67
  Q 612.53 314.76 629.26 330.75
  C 634.50 335.76 641.29 342.40 648.51 337.77
  Q 655.73 333.14 652.68 324.81
  Q 652.19 323.49 649.24 320.52
  C 644.81 316.07 639.66 311.28 635.73 305.45
  C 630.09 297.09 626.08 288.13 624.10 278.43
  C 623.08 273.48 623.99 270.03 628.51 267.49
  Q 640.99 260.48 655.62 251.13
  C 662.18 246.93 669.74 242.81 677.01 240.56
  Q 704.95 231.90 731.02 242.57
  Q 754.83 252.31 767.55 275.27
  Q 774.38 287.60 776.45 301.56
  C 779.58 322.68 772.44 346.15 759.95 363.32
  Q 755.28 369.74 746.36 378.01
  C 738.82 385.00 730.57 392.42 722.46 401.13
  C 714.97 409.19 709.83 417.88 705.68 427.44
  C 703.97 431.38 702.03 435.28 703.23 439.01
  C 705.53 446.20 715.26 449.14 720.94 443.62
  Q 723.08 441.54 724.82 437.80
  Q 728.56 429.79 730.08 427.34
  C 735.70 418.26 742.95 409.51 751.56 404.14
  C 760.93 398.31 774.03 394.14 785.24 395.02
  C 827.30 398.31 851.36 435.73 845.81 475.70
  C 841.77 504.86 826.29 527.26 804.51 546.41
  Q 795.99 553.90 781.98 561.63
  Q 766.95 569.92 752.91 576.10
  Q 738.89 582.27 729.46 586.97
  C 712.37 595.48 699.28 611.05 689.65 627.30
  Z" fill="#f3f3f5"/>
    <path d="M 368.07 198.31
  C 365.02 206.51 362.45 215.51 358.28 230.26
  Q 356.75 235.69 351.61 248.68
  C 343.63 268.87 328.57 288.39 308.97 298.91
  C 292.57 307.72 273.07 312.97 254.41 311.25
  A 2.92 2.88 -14.7 0 1 252.29 310.03
  Q 251.21 308.51 250.14 305.88
  C 245.56 294.70 241.55 283.30 239.14 271.63
  C 234.18 247.61 240.41 222.50 256.71 204.10
  C 263.87 196.02 273.00 188.34 282.95 184.19
  Q 307.95 173.75 335.71 180.31
  C 347.42 183.08 358.13 189.12 367.49 196.31
  A 1.76 1.75 29.0 0 1 368.07 198.31
  Z" fill="#f3f3f5"/>
  </g>
  <g id="face" transform="translate(0 -24)">
    <ellipse fill="#010101" cx="0.00" cy="0.00" transform="translate(389.75,436.42) rotate(-102.0)" rx="29.95" ry="29.83"/>
    <circle fill="#010101" cx="557.43" cy="436.71" r="29.85"/>
    <path fill="#010101" d="  M 473.88 534.44
  C 454.28 534.52 437.61 524.01 427.66 507.57
  C 423.66 500.97 415.56 481.05 427.30 477.29
  Q 430.66 476.22 437.00 477.02
  C 450.47 478.73 461.83 479.84 473.67 479.79
  C 485.50 479.74 496.85 478.55 510.30 476.73
  Q 516.64 475.88 520.01 476.92
  C 531.78 480.59 523.84 500.57 519.89 507.20
  C 510.08 523.72 493.48 534.36 473.88 534.44
  Z"/>
  </g>
</g>
  </g>
</svg>
