<?xml version="1.0" encoding="UTF-8" standalone="no"?>
<svg xmlns="http://www.w3.org/2000/svg" version="1.1" viewBox="0 0 909 925">
<g id="blob">
  <g stroke-linejoin="round" stroke-linecap="round">
    <path d="  M 689.65 627.30
  A 0.37 0.36 46.4 0 1 689.01 627.28
  Q 684.28 618.48 681.93 610.69
  Q 679.35 602.12 678.01 593.04
  Q 674.80 571.22 682.90 551.09
  Q 685.28 545.16 685.18 542.75
  Q 684.94 537.29 679.46 534.04
  C 673.59 530.57 667.50 533.77 664.64 539.39
  Q 661.63 545.29 659.47 552.99
  C 650.70 584.26 658.02 615.09 670.54 644.22
  Q 672.09 647.83 679.64 661.51
  C 683.35 668.23 685.80 673.71 688.46 680.53
  C 691.56 688.46 693.11 697.12 693.89 705.97
  Q 694.57 713.71 694.37 717.79
  Q 693.85 728.05 691.90 738.69
  Q 690.17 748.16 685.63 758.74
  C 673.26 787.60 648.43 812.14 618.46 822.37
  Q 586.38 833.32 554.28 824.95
  C 544.82 822.48 533.13 817.38 524.03 810.94
  C 520.47 808.42 518.14 807.10 515.30 804.72
  Q 492.53 785.67 479.92 759.07
  C 472.62 743.66 468.32 727.80 463.42 710.36
  Q 459.98 698.09 456.09 688.99
  Q 444.73 662.38 420.73 649.05
  Q 413.69 645.14 407.39 649.67
  C 402.63 653.09 402.17 659.04 405.03 663.70
  Q 406.06 665.39 411.99 668.66
  C 424.75 675.70 432.44 686.81 437.63 700.99
  C 439.20 705.30 439.72 709.99 441.06 713.94
  A 1.52 1.47 -44.2 0 1 441.03 714.96
  Q 438.05 722.46 433.94 728.94
  Q 422.88 746.37 411.26 759.74
  Q 402.91 769.35 393.52 776.44
  Q 382.52 784.73 373.05 789.75
  C 348.70 802.64 321.39 807.38 293.62 803.12
  Q 266.25 798.92 242.86 783.89
  C 237.03 780.14 229.46 774.58 224.01 769.41
  Q 204.16 750.54 192.25 725.53
  C 176.39 692.22 177.35 652.10 193.58 619.36
  Q 200.91 604.57 212.05 591.04
  Q 212.54 590.44 226.65 574.17
  Q 235.52 563.94 242.69 553.46
  Q 247.03 547.11 253.20 535.45
  Q 259.68 523.21 261.72 509.67
  C 262.72 503.02 263.06 497.32 258.37 493.20
  C 253.60 489.01 246.48 490.28 242.72 495.52
  Q 241.50 497.21 240.84 502.83
  Q 239.15 517.21 231.38 529.88
  Q 224.77 540.67 218.91 548.15
  Q 215.27 552.79 211.88 555.84
  A 2.89 2.88 -57.4 0 1 209.12 556.45
  C 204.01 554.89 196.41 552.51 188.67 550.63
  Q 172.57 546.72 166.30 544.69
  Q 142.43 536.96 123.49 520.25
  Q 117.76 515.19 110.66 506.10
  C 97.43 489.14 90.34 468.64 88.52 447.19
  Q 87.68 437.14 89.21 426.87
  Q 91.48 411.57 95.72 400.46
  C 107.79 368.86 133.99 343.75 166.41 333.28
  C 183.33 327.81 202.11 327.29 219.82 329.14
  Q 228.21 330.02 243.07 332.34
  C 295.59 340.54 345.57 313.30 368.95 265.94
  Q 373.55 256.62 377.77 243.04
  Q 380.50 234.24 387.02 212.23
  Q 391.00 198.79 399.78 184.27
  C 410.88 165.92 429.18 150.51 449.60 143.43
  Q 483.20 131.78 514.43 141.24
  C 559.39 154.86 586.76 195.27 593.88 240.05
  Q 596.93 259.21 596.95 259.32
  Q 599.57 276.15 605.11 292.67
  Q 612.53 314.76 629.26 330.75
  C 634.50 335.76 641.29 342.40 648.51 337.77
  Q 655.73 333.14 652.68 324.81
  Q 652.19 323.49 649.24 320.52
  C 644.81 316.07 639.66 311.28 635.73 305.45
  C 630.09 297.09 626.08 288.13 624.10 278.43
  C 623.08 273.48 623.99 270.03 628.51 267.49
  Q 640.99 260.48 655.62 251.13
  C 662.18 246.93 669.74 242.81 677.01 240.56
  Q 704.95 231.90 731.02 242.57
  Q 754.83 252.31 767.55 275.27
  Q 774.38 287.60 776.45 301.56
  C 779.58 322.68 772.44 346.15 759.95 363.32
  Q 755.28 369.74 746.36 378.01
  C 738.82 385.00 730.57 392.42 722.46 401.13
  C 714.97 409.19 709.83 417.88 705.68 427.44
  C 703.97 431.38 702.03 435.28 703.23 439.01
  C 705.53 446.20 715.26 449.14 720.94 443.62
  Q 723.08 441.54 724.82 437.80
  Q 728.56 429.79 730.08 427.34
  C 735.70 418.26 742.95 409.51 751.56 404.14
  C 760.93 398.31 774.03 394.14 785.24 395.02
  C 827.30 398.31 851.36 435.73 845.81 475.70
  C 841.77 504.86 826.29 527.26 804.51 546.41
  Q 795.99 553.90 781.98 561.63
  Q 766.95 569.92 752.91 576.10
  Q 738.89 582.27 729.46 586.97
  C 712.37 595.48 699.28 611.05 689.65 627.30
  Z" fill="none" stroke="#010101" stroke-width="46"/>
    <path d="M 368.07 198.31
  C 365.02 206.51 362.45 215.51 358.28 230.26
  Q 356.75 235.69 351.61 248.68
  C 343.63 268.87 328.57 288.39 308.97 298.91
  C 292.57 307.72 273.07 312.97 254.41 311.25
  A 2.92 2.88 -14.7 0 1 252.29 310.03
  Q 251.21 308.51 250.14 305.88
  C 245.56 294.70 241.55 283.30 239.14 271.63
  C 234.18 247.61 240.41 222.50 256.71 204.10
  C 263.87 196.02 273.00 188.34 282.95 184.19
  Q 307.95 173.75 335.71 180.31
  C 347.42 183.08 358.13 189.12 367.49 196.31
  A 1.76 1.75 29.0 0 1 368.07 198.31
  Z" fill="none" stroke="#010101" stroke-width="46"/>
    <path d="  M 689.65 627.30
  A 0.37 0.36 46.4 0 1 689.01 627.28
  Q 684.28 618.48 681.93 610.69
  Q 679.35 602.12 678.01 593.04
  Q 674.80 571.22 682.90 551.09
  Q 685.28 545.16 685.18 542.75
  Q 684.94 537.29 679.46 534.04
  C 673.59 530.57 667.50 533.77 664.64 539.39
  Q 661.63 545.29 659.47 552.99
  C 650.70 584.26 658.02 615.09 670.54 644.22
  Q 672.09 647.83 679.64 661.51
  C 683.35 668.23 685.80 673.71 688.46 680.53
  C 691.56 688.46 693.11 697.12 693.89 705.97
  Q 694.57 713.71 694.37 717.79
  Q 693.85 728.05 691.90 738.69
  Q 690.17 748.16 685.63 758.74
  C 673.26 787.60 648.43 812.14 618.46 822.37
  Q 586.38 833.32 554.28 824.95
  C 544.82 822.48 533.13 817.38 524.03 810.94
  C 520.47 808.42 518.14 807.10 515.30 804.72
  Q 492.53 785.67 479.92 759.07
  C 472.62 743.66 468.32 727.80 463.42 710.36
  Q 459.98 698.09 456.09 688.99
  Q 444.73 662.38 420.73 649.05
  Q 413.69 645.14 407.39 649.67
  C 402.63 653.09 402.17 659.04 405.03 663.70
  Q 406.06 665.39 411.99 668.66
  C 424.75 675.70 432.44 686.81 437.63 700.99
  C 439.20 705.30 439.72 709.99 441.06 713.94
  A 1.52 1.47 -44.2 0 1 441.03 714.96
  Q 438.05 722.46 433.94 728.94
  Q 422.88 746.37 411.26 759.74
  Q 402.91 769.35 393.52 776.44
  Q 382.52 784.73 373.05 789.75
  C 348.70 802.64 321.39 807.38 293.62 803.12
  Q 266.25 798.92 242.86 783.89
  C 237.03 780.14 229.46 774.58 224.01 769.41
  Q 204.16 750.54 192.25 725.53
  C 176.39 692.22 177.35 652.10 193.58 619.36
  Q 200.91 604.57 212.05 591.04
  Q 212.54 590.44 226.65 574.17
  Q 235.52 563.94 242.69 553.46
  Q 247.03 547.11 253.20 535.45
  Q 259.68 523.21 261.72 509.67
  C 262.72 503.02 263.06 497.32 258.37 493.20
  C 253.60 489.01 246.48 490.28 242.72 495.52
  Q 241.50 497.21 240.84 502.83
  Q 239.15 517.21 231.38 529.88
  Q 224.77 540.67 218.91 548.15
  Q 215.27 552.79 211.88 555.84
  A 2.89 2.88 -57.4 0 1 209.12 556.45
  C 204.01 554.89 196.41 552.51 188.67 550.63
  Q 172.57 546.72 166.30 544.69
  Q 142.43 536.96 123.49 520.25
  Q 117.76 515.19 110.66 506.10
  C 97.43 489.14 90.34 468.64 88.52 447.19
  Q 87.68 437.14 89.21 426.87
  Q 91.48 411.57 95.72 400.46
  C 107.79 368.86 133.99 343.75 166.41 333.28
  C 183.33 327.81 202.11 327.29 219.82 329.14
  Q 228.21 330.02 243.07 332.34
  C 295.59 340.54 345.57 313.30 368.95 265.94
  Q 373.55 256.62 377.77 243.04
  Q 380.50 234.24 387.02 212.23
  Q 391.00 198.79 399.78 184.27
  C 410.88 165.92 429.18 150.51 449.60 143.43
  Q 483.20 131.78 514.43 141.24
  C 559.39 154.86 586.76 195.27 593.88 240.05
  Q 596.93 259.21 596.95 259.32
  Q 599.57 276.15 605.11 292.67
  Q 612.53 314.76 629.26 330.75
  C 634.50 335.76 641.29 342.40 648.51 337.77
  Q 655.73 333.14 652.68 324.81
  Q 652.19 323.49 649.24 320.52
  C 644.81 316.07 639.66 311.28 635.73 305.45
  C 630.09 297.09 626.08 288.13 624.10 278.43
  C 623.08 273.48 623.99 270.03 628.51 267.49
  Q 640.99 260.48 655.62 251.13
  C 662.18 246.93 669.74 242.81 677.01 240.56
  Q 704.95 231.90 731.02 242.57
  Q 754.83 252.31 767.55 275.27
  Q 774.38 287.60 776.45 301.56
  C 779.58 322.68 772.44 346.15 759.95 363.32
  Q 755.28 369.74 746.36 378.01
  C 738.82 385.00 730.57 392.42 722.46 401.13
  C 714.97 409.19 709.83 417.88 705.68 427.44
  C 703.97 431.38 702.03 435.28 703.23 439.01
  C 705.53 446.20 715.26 449.14 720.94 443.62
  Q 723.08 441.54 724.82 437.80
  Q 728.56 429.79 730.08 427.34
  C 735.70 418.26 742.95 409.51 751.56 404.14
  C 760.93 398.31 774.03 394.14 785.24 395.02
  C 827.30 398.31 851.36 435.73 845.81 475.70
  C 841.77 504.86 826.29 527.26 804.51 546.41
  Q 795.99 553.90 781.98 561.63
  Q 766.95 569.92 752.91 576.10
  Q 738.89 582.27 729.46 586.97
  C 712.37 595.48 699.28 611.05 689.65 627.30
  Z" fill="#faf8f3"/>
    <path d="M 368.07 198.31
  C 365.02 206.51 362.45 215.51 358.28 230.26
  Q 356.75 235.69 351.61 248.68
  C 343.63 268.87 328.57 288.39 308.97 298.91
  C 292.57 307.72 273.07 312.97 254.41 311.25
  A 2.92 2.88 -14.7 0 1 252.29 310.03
  Q 251.21 308.51 250.14 305.88
  C 245.56 294.70 241.55 283.30 239.14 271.63
  C 234.18 247.61 240.41 222.50 256.71 204.10
  C 263.87 196.02 273.00 188.34 282.95 184.19
  Q 307.95 173.75 335.71 180.31
  C 347.42 183.08 358.13 189.12 367.49 196.31
  A 1.76 1.75 29.0 0 1 368.07 198.31
  Z" fill="#faf8f3"/>
  </g>
  <g id="face" transform="translate(0 -24)">
    <circle cx="392" cy="430" r="36" fill="#010101"/>
    <circle cx="548" cy="430" r="36" fill="#010101"/>
    <path d="M 352 512 Q 470 632 588 512 Z" fill="#010101"/>
  </g>
</g>
</svg>
